<?xml version="1.0" encoding="iso-8859-1"?>
<!-- Generator: Adobe Illustrator 24.1.2, SVG Export Plug-In . SVG Version: 6.00 Build 0)  -->
<svg version="1.1" id="Layer_2" xmlns="http://www.w3.org/2000/svg" xmlns:xlink="http://www.w3.org/1999/xlink" x="0px" y="0px"
	 viewBox="0 0 48 48" style="enable-background:new 0 0 48 48;" xml:space="preserve">
<g>
	<linearGradient id="SVGID_1_" gradientUnits="userSpaceOnUse" x1="9.9929" y1="9.9929" x2="40.6152" y2="40.6152">
		<stop  offset="0" style="stop-color:#2AA4F4"/>
		<stop  offset="1" style="stop-color:#007AD9"/>
	</linearGradient>
	<path style="fill:url(#SVGID_1_);" d="M24,4C12.954,4,4,12.954,4,24s8.954,20,20,20s20-8.954,20-20S35.046,4,24,4z"/>
	<path style="fill:#FFFFFF;" d="M26.707,29.301h5.176l0.813-5.258h-5.989v-2.874c0-2.184,0.714-4.121,2.757-4.121h3.283V12.46
		c-0.577-0.078-1.797-0.248-4.102-0.248c-4.814,0-7.636,2.542-7.636,8.334v3.498H16.06v5.258h4.948v14.452
		C21.988,43.9,22.981,44,24,44c0.921,0,1.82-0.084,2.707-0.204V29.301z"/>
</g>
</svg>