<svg width="20" height="20" viewBox="0 0 20 20" fill="none" xmlns="http://www.w3.org/2000/svg">
<g clip-path="url(#clip0_101_1829)">
<path d="M19.5337 10.1871C19.5337 9.36767 19.4672 8.76973 19.3233 8.14966H9.96666V11.848H15.4588C15.3481 12.7671 14.7502 14.1512 13.4214 15.0813L13.4028 15.2051L16.3612 17.4969L16.5661 17.5174C18.4485 15.7789 19.5337 13.221 19.5337 10.1871" fill="#4285F4"/>
<path d="M9.96665 19.9313C12.6573 19.9313 14.9162 19.0454 16.5661 17.5174L13.4214 15.0813C12.5799 15.6682 11.4504 16.0779 9.96665 16.0779C7.33131 16.0779 5.09459 14.3395 4.29727 11.9366L4.1804 11.9466L1.10421 14.3273L1.06398 14.4391C2.70276 17.6945 6.06895 19.9313 9.96665 19.9313Z" fill="#34A853"/>
<path d="M4.29727 11.9366C4.08688 11.3165 3.96513 10.6521 3.96513 9.96559C3.96513 9.27902 4.08688 8.61467 4.2862 7.9946L4.28062 7.86253L1.16589 5.4436L1.06398 5.49208C0.388564 6.84299 0.00100708 8.36002 0.00100708 9.96559C0.00100708 11.5712 0.388564 13.0881 1.06398 14.439L4.29727 11.9366" fill="#FBBC05"/>
<path d="M9.96665 3.85336C11.838 3.85336 13.1002 4.66168 13.82 5.33718L16.6325 2.59107C14.9052 0.985496 12.6573 0 9.96665 0C6.06895 0 2.70276 2.23672 1.06398 5.49214L4.2862 7.99466C5.09459 5.59183 7.33131 3.85336 9.96665 3.85336" fill="#EB4335"/>
</g>
<defs>
<clipPath id="clip0_101_1829">
<rect width="19.544" height="20" fill="white"/>
</clipPath>
</defs>
</svg>
